<svg width="96" height="96" viewBox="0 0 96 96" fill="none" xmlns="http://www.w3.org/2000/svg">
<path d="M80.9505 25.5615C80.358 17.274 74.6235 12 66 12H65.3655C60.8355 4.4685 52.728 0 43.5 0C29.9235 0 18.792 10.662 18.0405 24.054C7.968 24.8025 0 33.2385 0 43.5C0 54.252 8.748 63 19.5 63H33V60H19.5C10.4025 60 3 52.5975 3 43.5C3 34.4025 10.4025 27 19.5 27H21V25.5C21 13.0935 31.0935 3 43.5 3C51.9345 3 59.2935 7.197 63.1875 14.226L63.615 15H66C74.847 15 78 21.1995 78 27V28.5H79.5C87.1965 28.5 93 34.9485 93 43.5C93 52.5975 85.5975 60 76.5 60H63V63H76.5C87.252 63 96 54.252 96 43.5C96 33.774 89.625 26.313 80.9505 25.5615Z" fill="#F2C94C"/>
<path d="M43.5 12V9C34.71 9 27 17.4105 27 27H30C30 18.414 37.1265 12 43.5 12Z" fill="#F2C94C"/>
<path d="M55.272 47.268C52.752 46.3095 50.151 45.3105 47.538 43.854L44.211 38.862L43.5 38.979V35.1945C44.9265 33.873 48.2355 29.958 49.485 21.213L49.5 15C49.5 5.046 44.454 0 34.5 0C24.546 0 19.5 5.046 19.5 15V21L19.515 21.213C20.7645 29.958 24.0735 33.873 25.5 35.1945V38.979L24.789 38.8605L21.462 43.8525C18.849 45.3105 16.2465 46.3095 13.728 47.2665C6.669 49.9515 0 52.485 0 64.5V72H3V64.5C3 54.5535 7.692 52.7715 14.7945 50.0715C17.085 49.2015 19.647 48.2055 22.221 46.8435L28.2045 52.8255L34.5 49.677L40.7955 52.8255L46.7775 46.8435C49.353 48.2055 51.915 49.2015 54.204 50.0715C61.308 52.7715 66 54.5535 66 64.5V72H69V64.5C69 52.485 62.3325 49.9515 55.272 47.268ZM34.5 3C42.483 3 46.2015 6.438 46.473 14.0865L41.9325 16.3575L26.9325 10.3575L22.638 12.5055C23.3535 5.9625 27.0885 3 34.5 3ZM22.5 20.892V15.927L27.0675 13.644L42.0675 19.644L46.5 17.427V20.892C45.21 29.7555 41.688 32.838 41.2185 33.213C38.577 34.479 34.539 34.5 34.5015 34.5C34.461 34.5 30.4215 34.479 27.7785 33.2115C27.3015 32.8335 23.7915 29.769 22.5 20.892ZM28.5 36.663C31.362 37.485 34.3425 37.5 34.5 37.5C34.6575 37.5 37.638 37.485 40.5 36.663V39.4785L34.5 40.479L28.5 39.4785V36.663ZM40.2045 49.1745L34.5 46.323L28.7955 49.1745L24.429 44.8095L26.2095 42.1395L34.5 43.521L42.789 42.1395L44.5695 44.8095L40.2045 49.1745Z" transform="translate(13.5 24)" fill="#141416"/>
<path d="M36 60H33V63H36V60Z" transform="translate(13.5 24)" fill="#141416"/>
<path d="M36 54H33V57H36V54Z" transform="translate(13.5 24)" fill="#141416"/>
<path d="M15 66H12V72H15V66Z" transform="translate(13.5 24)" fill="#141416"/>
<path d="M57 66H54V72H57V66Z" transform="translate(13.5 24)" fill="#141416"/>
</svg>
