<svg width="15" height="12" viewBox="0 0 15 12" fill="none" xmlns="http://www.w3.org/2000/svg">
<path d="M14.7362 1.42853C14.1921 1.66831 13.6111 1.83154 12.9978 1.90532C13.6222 1.52997 14.1027 0.936981 14.3286 0.230556C13.7439 0.57178 13.0956 0.820781 12.4058 0.959115C11.8543 0.36889 11.0686 -3.43006e-08 10.1961 -3.43006e-08C8.52505 -3.43006e-08 7.16938 1.35567 7.16938 3.0249C7.16938 3.26468 7.19705 3.49524 7.24777 3.71657C4.73194 3.59668 2.50108 2.38856 1.00799 0.562558C0.74608 1.00615 0.598524 1.52259 0.598524 2.08515C0.598524 3.13649 1.13342 4.06148 1.94497 4.60467C1.44882 4.58899 0.981248 4.45251 0.573624 4.22656V4.26345C0.573624 5.72979 1.61574 6.9545 3.00184 7.23302C2.74731 7.30126 2.47986 7.33815 2.20412 7.33815C2.01045 7.33815 1.82601 7.3197 1.64156 7.28466C2.0289 8.48724 3.14479 9.36243 4.47279 9.38733C3.4399 10.1989 2.13034 10.6821 0.719336 10.6821C0.479557 10.6821 0.239779 10.6683 -2.61102e-10 10.6406C1.34645 11.4983 2.93268 12 4.64802 12C10.2183 12 13.2616 7.38887 13.2616 3.39563C13.2616 3.26652 13.2616 3.13741 13.2524 3.0083C13.8426 2.58408 14.3591 2.04919 14.7648 1.44052L14.7362 1.42853Z" fill="white"/>
</svg>
